<mxfile host="app.diagrams.net" agent="Mozilla/5.0 (Windows NT 10.0; Win64; x64) AppleWebKit/537.36 (KHTML, like Gecko) Chrome/131.0.0.0 Safari/537.36" version="25.0.3">
  <diagram id="prtHgNgQTEPvFCAcTncT" name="Page-1">
    <mxGraphModel dx="1362" dy="524" grid="0" gridSize="10" guides="1" tooltips="1" connect="1" arrows="1" fold="1" page="0" pageScale="1" pageWidth="3300" pageHeight="4681" background="none" math="0" shadow="0">
      <root>
        <mxCell id="0" />
        <mxCell id="1" parent="0" />
        <mxCell id="NhmMuveX9BDLbL9c3R6i-1" value="Fashion Verse" style="rounded=1;whiteSpace=wrap;html=1;labelBackgroundColor=none;fillColor=#ffe6cc;strokeColor=#d79b00;fontStyle=1;fontSize=14;align=center;fontFamily=Verdana;" parent="1" vertex="1">
          <mxGeometry x="2170" y="540" width="120" height="60" as="geometry" />
        </mxCell>
        <mxCell id="NhmMuveX9BDLbL9c3R6i-2" value="" style="endArrow=classic;html=1;rounded=0;exitX=0;exitY=0.5;exitDx=0;exitDy=0;entryX=0.5;entryY=0;entryDx=0;entryDy=0;labelBackgroundColor=none;fontColor=default;fontSize=14;align=center;fontFamily=Verdana;fontStyle=1" parent="1" source="NhmMuveX9BDLbL9c3R6i-1" target="NhmMuveX9BDLbL9c3R6i-3" edge="1">
          <mxGeometry width="50" height="50" relative="1" as="geometry">
            <mxPoint x="1870" y="700" as="sourcePoint" />
            <mxPoint x="1630" y="640" as="targetPoint" />
            <Array as="points">
              <mxPoint x="1670" y="570" />
            </Array>
          </mxGeometry>
        </mxCell>
        <mxCell id="NhmMuveX9BDLbL9c3R6i-3" value="Trang chủ" style="rounded=1;whiteSpace=wrap;html=1;labelBackgroundColor=none;fillColor=#ffe6cc;strokeColor=#d79b00;fontSize=14;align=center;fontFamily=Verdana;fontStyle=1" parent="1" vertex="1">
          <mxGeometry x="1610" y="640" width="120" height="60" as="geometry" />
        </mxCell>
        <mxCell id="NhmMuveX9BDLbL9c3R6i-4" value="Danh mục" style="rounded=1;whiteSpace=wrap;html=1;labelBackgroundColor=none;fillColor=#ffe6cc;strokeColor=#d79b00;fontSize=14;align=center;fontFamily=Verdana;fontStyle=1" parent="1" vertex="1">
          <mxGeometry x="1890" y="640" width="120" height="60" as="geometry" />
        </mxCell>
        <mxCell id="NhmMuveX9BDLbL9c3R6i-5" value="Tài khoản" style="rounded=1;whiteSpace=wrap;html=1;labelBackgroundColor=none;fillColor=#ffe6cc;strokeColor=#d79b00;fontSize=14;align=center;fontFamily=Verdana;fontStyle=1" parent="1" vertex="1">
          <mxGeometry x="1750" y="640" width="120" height="60" as="geometry" />
        </mxCell>
        <mxCell id="NhmMuveX9BDLbL9c3R6i-6" value="Sản phẩm" style="rounded=1;whiteSpace=wrap;html=1;labelBackgroundColor=none;fillColor=#ffe6cc;strokeColor=#d79b00;fontSize=14;align=center;fontFamily=Verdana;fontStyle=1" parent="1" vertex="1">
          <mxGeometry x="2030" y="640" width="120" height="60" as="geometry" />
        </mxCell>
        <mxCell id="NhmMuveX9BDLbL9c3R6i-7" value="Chi tiết" style="rounded=1;whiteSpace=wrap;html=1;labelBackgroundColor=none;fillColor=#ffe6cc;strokeColor=#d79b00;fontSize=14;align=center;fontFamily=Verdana;fontStyle=1" parent="1" vertex="1">
          <mxGeometry x="2170" y="640" width="120" height="60" as="geometry" />
        </mxCell>
        <mxCell id="NhmMuveX9BDLbL9c3R6i-8" value="Bình luận" style="rounded=1;whiteSpace=wrap;html=1;labelBackgroundColor=none;fillColor=#ffe6cc;strokeColor=#d79b00;fontSize=14;align=center;fontFamily=Verdana;fontStyle=1" parent="1" vertex="1">
          <mxGeometry x="2310" y="640" width="120" height="60" as="geometry" />
        </mxCell>
        <mxCell id="NhmMuveX9BDLbL9c3R6i-9" value="Giỏ hàng" style="rounded=1;whiteSpace=wrap;html=1;labelBackgroundColor=none;fillColor=#ffe6cc;strokeColor=#d79b00;fontSize=14;align=center;fontFamily=Verdana;fontStyle=1" parent="1" vertex="1">
          <mxGeometry x="2450" y="640" width="120" height="60" as="geometry" />
        </mxCell>
        <mxCell id="NhmMuveX9BDLbL9c3R6i-11" value="Thanh toán" style="rounded=1;whiteSpace=wrap;html=1;labelBackgroundColor=none;fillColor=#ffe6cc;strokeColor=#d79b00;fontSize=14;align=center;fontFamily=Verdana;fontStyle=1" parent="1" vertex="1">
          <mxGeometry x="2590" y="640" width="120" height="60" as="geometry" />
        </mxCell>
        <mxCell id="NhmMuveX9BDLbL9c3R6i-14" value="" style="endArrow=classic;html=1;rounded=0;entryX=0.5;entryY=0;entryDx=0;entryDy=0;labelBackgroundColor=none;fontColor=default;fontSize=14;align=center;fontFamily=Verdana;fontStyle=1" parent="1" target="NhmMuveX9BDLbL9c3R6i-5" edge="1">
          <mxGeometry width="50" height="50" relative="1" as="geometry">
            <mxPoint x="1810" y="570" as="sourcePoint" />
            <mxPoint x="2190" y="660" as="targetPoint" />
          </mxGeometry>
        </mxCell>
        <mxCell id="NhmMuveX9BDLbL9c3R6i-15" value="" style="endArrow=classic;html=1;rounded=0;entryX=0.5;entryY=0;entryDx=0;entryDy=0;labelBackgroundColor=none;fontColor=default;fontSize=14;align=center;fontFamily=Verdana;fontStyle=1" parent="1" edge="1">
          <mxGeometry width="50" height="50" relative="1" as="geometry">
            <mxPoint x="1949.55" y="570" as="sourcePoint" />
            <mxPoint x="1949.55" y="640" as="targetPoint" />
          </mxGeometry>
        </mxCell>
        <mxCell id="NhmMuveX9BDLbL9c3R6i-16" value="" style="endArrow=classic;html=1;rounded=0;entryX=0.5;entryY=0;entryDx=0;entryDy=0;labelBackgroundColor=none;fontColor=default;fontSize=14;align=center;fontFamily=Verdana;fontStyle=1" parent="1" edge="1">
          <mxGeometry width="50" height="50" relative="1" as="geometry">
            <mxPoint x="2089.55" y="570" as="sourcePoint" />
            <mxPoint x="2089.55" y="640" as="targetPoint" />
          </mxGeometry>
        </mxCell>
        <mxCell id="NhmMuveX9BDLbL9c3R6i-17" value="" style="endArrow=classic;html=1;rounded=0;entryX=0.5;entryY=0;entryDx=0;entryDy=0;labelBackgroundColor=none;fontColor=default;fontSize=14;align=center;fontFamily=Verdana;fontStyle=1" parent="1" edge="1">
          <mxGeometry width="50" height="50" relative="1" as="geometry">
            <mxPoint x="2230" y="600" as="sourcePoint" />
            <mxPoint x="2229.69" y="640" as="targetPoint" />
          </mxGeometry>
        </mxCell>
        <mxCell id="NhmMuveX9BDLbL9c3R6i-18" value="" style="endArrow=classic;html=1;rounded=0;exitX=1;exitY=0.5;exitDx=0;exitDy=0;entryX=0.5;entryY=0;entryDx=0;entryDy=0;labelBackgroundColor=none;fontColor=default;fontSize=14;align=center;fontFamily=Verdana;fontStyle=1" parent="1" source="NhmMuveX9BDLbL9c3R6i-1" target="NhmMuveX9BDLbL9c3R6i-22" edge="1">
          <mxGeometry width="50" height="50" relative="1" as="geometry">
            <mxPoint x="2180" y="580" as="sourcePoint" />
            <mxPoint x="1680" y="650" as="targetPoint" />
            <Array as="points">
              <mxPoint x="2790" y="570" />
            </Array>
          </mxGeometry>
        </mxCell>
        <mxCell id="NhmMuveX9BDLbL9c3R6i-19" value="" style="endArrow=classic;html=1;rounded=0;entryX=0.5;entryY=0;entryDx=0;entryDy=0;labelBackgroundColor=none;fontColor=default;fontSize=14;align=center;fontFamily=Verdana;fontStyle=1" parent="1" edge="1">
          <mxGeometry width="50" height="50" relative="1" as="geometry">
            <mxPoint x="2369.4700000000003" y="570" as="sourcePoint" />
            <mxPoint x="2369.4700000000003" y="640" as="targetPoint" />
          </mxGeometry>
        </mxCell>
        <mxCell id="NhmMuveX9BDLbL9c3R6i-21" value="" style="endArrow=classic;html=1;rounded=0;entryX=0.5;entryY=0;entryDx=0;entryDy=0;labelBackgroundColor=none;fontColor=default;fontSize=14;align=center;fontFamily=Verdana;fontStyle=1" parent="1" edge="1">
          <mxGeometry width="50" height="50" relative="1" as="geometry">
            <mxPoint x="2509.4700000000003" y="570" as="sourcePoint" />
            <mxPoint x="2509.4700000000003" y="640" as="targetPoint" />
          </mxGeometry>
        </mxCell>
        <mxCell id="NhmMuveX9BDLbL9c3R6i-22" value="&lt;div style=&quot;&quot;&gt;&lt;span style=&quot;background-color: initial;&quot;&gt;Trang khác&lt;/span&gt;&lt;/div&gt;" style="rounded=1;whiteSpace=wrap;html=1;labelBackgroundColor=none;fillColor=#ffe6cc;strokeColor=#d79b00;fontSize=14;align=center;fontFamily=Verdana;fontStyle=1" parent="1" vertex="1">
          <mxGeometry x="2730" y="640" width="120" height="60" as="geometry" />
        </mxCell>
        <mxCell id="NhmMuveX9BDLbL9c3R6i-23" value="" style="endArrow=classic;html=1;rounded=0;entryX=0.5;entryY=0;entryDx=0;entryDy=0;labelBackgroundColor=none;fontColor=default;fontSize=14;align=center;fontFamily=Verdana;fontStyle=1" parent="1" edge="1">
          <mxGeometry width="50" height="50" relative="1" as="geometry">
            <mxPoint x="2649.7" y="570" as="sourcePoint" />
            <mxPoint x="2649.7" y="640" as="targetPoint" />
          </mxGeometry>
        </mxCell>
        <mxCell id="P_rpxnQvKxFGcnmbpjbn-1" value="" style="endArrow=classic;html=1;rounded=0;exitX=0.5;exitY=1;exitDx=0;exitDy=0;entryX=0;entryY=0.5;entryDx=0;entryDy=0;fontSize=14;align=center;fontFamily=Verdana;fontStyle=1" parent="1" source="NhmMuveX9BDLbL9c3R6i-22" target="P_rpxnQvKxFGcnmbpjbn-2" edge="1">
          <mxGeometry width="50" height="50" relative="1" as="geometry">
            <mxPoint x="2790" y="740" as="sourcePoint" />
            <mxPoint x="2790" y="800" as="targetPoint" />
            <Array as="points">
              <mxPoint x="2790" y="760" />
            </Array>
          </mxGeometry>
        </mxCell>
        <mxCell id="P_rpxnQvKxFGcnmbpjbn-2" value="&lt;div style=&quot;&quot;&gt;&lt;span style=&quot;background-color: initial;&quot;&gt;Giới thiệu&lt;/span&gt;&lt;/div&gt;" style="rounded=1;whiteSpace=wrap;html=1;labelBackgroundColor=none;fillColor=#ffe6cc;strokeColor=#d79b00;fontSize=14;align=center;fontFamily=Verdana;fontStyle=1" parent="1" vertex="1">
          <mxGeometry x="2830" y="740" width="80" height="40" as="geometry" />
        </mxCell>
        <mxCell id="P_rpxnQvKxFGcnmbpjbn-3" value="" style="endArrow=classic;html=1;rounded=0;entryX=0;entryY=0.5;entryDx=0;entryDy=0;fontSize=14;align=center;fontFamily=Verdana;fontStyle=1" parent="1" target="P_rpxnQvKxFGcnmbpjbn-4" edge="1">
          <mxGeometry width="50" height="50" relative="1" as="geometry">
            <mxPoint x="2790" y="760" as="sourcePoint" />
            <mxPoint x="2789.8199999999997" y="860" as="targetPoint" />
            <Array as="points">
              <mxPoint x="2790" y="820" />
            </Array>
          </mxGeometry>
        </mxCell>
        <mxCell id="P_rpxnQvKxFGcnmbpjbn-4" value="Liên hệ" style="rounded=1;whiteSpace=wrap;html=1;labelBackgroundColor=none;fillColor=#ffe6cc;strokeColor=#d79b00;fontSize=14;align=center;fontFamily=Verdana;fontStyle=1" parent="1" vertex="1">
          <mxGeometry x="2830" y="800" width="80" height="40" as="geometry" />
        </mxCell>
        <mxCell id="P_rpxnQvKxFGcnmbpjbn-87" value="" style="edgeStyle=orthogonalEdgeStyle;rounded=0;orthogonalLoop=1;jettySize=auto;html=1;entryX=0.5;entryY=0;entryDx=0;entryDy=0;exitX=0.5;exitY=1;exitDx=0;exitDy=0;fontSize=14;align=center;fontFamily=Verdana;fontStyle=1" parent="1" source="P_rpxnQvKxFGcnmbpjbn-29" target="P_rpxnQvKxFGcnmbpjbn-60" edge="1">
          <mxGeometry relative="1" as="geometry">
            <mxPoint x="360" y="660" as="sourcePoint" />
          </mxGeometry>
        </mxCell>
        <mxCell id="P_rpxnQvKxFGcnmbpjbn-29" value="Người dùng" style="rounded=1;whiteSpace=wrap;html=1;labelBackgroundColor=none;fillColor=#ffe6cc;strokeColor=#d79b00;fontSize=14;align=center;fontFamily=Verdana;fontStyle=1" parent="1" vertex="1">
          <mxGeometry x="220" y="600" width="120" height="60" as="geometry" />
        </mxCell>
        <mxCell id="P_rpxnQvKxFGcnmbpjbn-33" value="Danh mục" style="rounded=1;whiteSpace=wrap;html=1;labelBackgroundColor=none;fillColor=#ffe6cc;strokeColor=#d79b00;fontSize=14;align=center;fontFamily=Verdana;fontStyle=1" parent="1" vertex="1">
          <mxGeometry x="740" y="600" width="120" height="60" as="geometry" />
        </mxCell>
        <mxCell id="P_rpxnQvKxFGcnmbpjbn-35" value="&lt;span style=&quot;&quot;&gt;Bình luận&lt;/span&gt;" style="rounded=1;whiteSpace=wrap;html=1;labelBackgroundColor=none;fillColor=#ffe6cc;strokeColor=#d79b00;fontSize=14;align=center;fontFamily=Verdana;fontStyle=1" parent="1" vertex="1">
          <mxGeometry x="1000" y="600" width="120" height="60" as="geometry" />
        </mxCell>
        <mxCell id="P_rpxnQvKxFGcnmbpjbn-37" value="" style="endArrow=classic;html=1;rounded=0;entryX=0.5;entryY=0;entryDx=0;entryDy=0;labelBackgroundColor=none;fontColor=default;fontSize=14;align=center;fontFamily=Verdana;fontStyle=1" parent="1" target="P_rpxnQvKxFGcnmbpjbn-29" edge="1">
          <mxGeometry width="50" height="50" relative="1" as="geometry">
            <mxPoint x="280" y="520" as="sourcePoint" />
            <mxPoint x="359.55" y="590" as="targetPoint" />
          </mxGeometry>
        </mxCell>
        <mxCell id="P_rpxnQvKxFGcnmbpjbn-38" value="" style="endArrow=classic;html=1;rounded=0;entryX=0.5;entryY=0;entryDx=0;entryDy=0;labelBackgroundColor=none;fontColor=default;fontSize=14;align=center;fontFamily=Verdana;fontStyle=1" parent="1" target="P_rpxnQvKxFGcnmbpjbn-103" edge="1">
          <mxGeometry width="50" height="50" relative="1" as="geometry">
            <mxPoint x="540" y="520" as="sourcePoint" />
            <mxPoint x="499.55" y="590" as="targetPoint" />
          </mxGeometry>
        </mxCell>
        <mxCell id="P_rpxnQvKxFGcnmbpjbn-40" value="" style="endArrow=classic;html=1;rounded=0;exitX=1;exitY=0.5;exitDx=0;exitDy=0;entryX=0.5;entryY=0;entryDx=0;entryDy=0;labelBackgroundColor=none;fontColor=default;fontSize=14;align=center;fontFamily=Verdana;fontStyle=1" parent="1" target="P_rpxnQvKxFGcnmbpjbn-141" edge="1">
          <mxGeometry width="50" height="50" relative="1" as="geometry">
            <mxPoint x="700" y="520" as="sourcePoint" />
            <mxPoint x="90" y="600" as="targetPoint" />
            <Array as="points">
              <mxPoint x="1320" y="520" />
            </Array>
          </mxGeometry>
        </mxCell>
        <mxCell id="P_rpxnQvKxFGcnmbpjbn-41" value="" style="endArrow=classic;html=1;rounded=0;entryX=0.5;entryY=0;entryDx=0;entryDy=0;labelBackgroundColor=none;fontColor=default;fontSize=14;align=center;fontFamily=Verdana;fontStyle=1" parent="1" target="P_rpxnQvKxFGcnmbpjbn-33" edge="1">
          <mxGeometry width="50" height="50" relative="1" as="geometry">
            <mxPoint x="800" y="520" as="sourcePoint" />
            <mxPoint x="779.47" y="590" as="targetPoint" />
          </mxGeometry>
        </mxCell>
        <mxCell id="P_rpxnQvKxFGcnmbpjbn-49" value="Fashion Verse" style="rounded=1;whiteSpace=wrap;html=1;labelBackgroundColor=none;fillColor=#ffe6cc;strokeColor=#d79b00;fontSize=14;align=center;fontStyle=1;fontFamily=Verdana;" parent="1" vertex="1">
          <mxGeometry x="580" y="490" width="120" height="60" as="geometry" />
        </mxCell>
        <mxCell id="P_rpxnQvKxFGcnmbpjbn-50" value="Trang đăng nhập" style="rounded=1;whiteSpace=wrap;html=1;labelBackgroundColor=none;fillColor=#ffe6cc;strokeColor=#d79b00;fontSize=14;align=center;fontFamily=Verdana;fontStyle=1" parent="1" vertex="1">
          <mxGeometry x="580" y="390" width="120" height="60" as="geometry" />
        </mxCell>
        <mxCell id="P_rpxnQvKxFGcnmbpjbn-51" value="" style="endArrow=classic;html=1;rounded=0;entryX=0.5;entryY=0;entryDx=0;entryDy=0;labelBackgroundColor=none;fontColor=default;fontSize=14;align=center;fontFamily=Verdana;fontStyle=1" parent="1" edge="1">
          <mxGeometry width="50" height="50" relative="1" as="geometry">
            <mxPoint x="640.03" y="450" as="sourcePoint" />
            <mxPoint x="639.7199999999999" y="490" as="targetPoint" />
          </mxGeometry>
        </mxCell>
        <mxCell id="P_rpxnQvKxFGcnmbpjbn-53" value="" style="endArrow=classic;html=1;rounded=0;exitX=0;exitY=0.5;exitDx=0;exitDy=0;labelBackgroundColor=none;fontColor=default;fontSize=14;align=center;fontFamily=Verdana;fontStyle=1" parent="1" source="P_rpxnQvKxFGcnmbpjbn-49" edge="1">
          <mxGeometry width="50" height="50" relative="1" as="geometry">
            <mxPoint x="140" y="480" as="sourcePoint" />
            <mxPoint x="80" y="600" as="targetPoint" />
            <Array as="points">
              <mxPoint x="80" y="520" />
            </Array>
          </mxGeometry>
        </mxCell>
        <mxCell id="P_rpxnQvKxFGcnmbpjbn-54" value="Thống kê" style="rounded=1;whiteSpace=wrap;html=1;labelBackgroundColor=none;fillColor=#ffe6cc;strokeColor=#d79b00;fontSize=14;align=center;fontFamily=Verdana;fontStyle=1" parent="1" vertex="1">
          <mxGeometry x="20" y="600" width="120" height="60" as="geometry" />
        </mxCell>
        <mxCell id="P_rpxnQvKxFGcnmbpjbn-56" value="" style="endArrow=classic;html=1;rounded=0;labelBackgroundColor=none;fontColor=default;fontSize=14;align=center;entryX=0.5;entryY=0;entryDx=0;entryDy=0;fontFamily=Verdana;fontStyle=1" parent="1" target="P_rpxnQvKxFGcnmbpjbn-57" edge="1">
          <mxGeometry width="50" height="50" relative="1" as="geometry">
            <mxPoint x="79.72" y="660" as="sourcePoint" />
            <mxPoint x="80" y="720" as="targetPoint" />
          </mxGeometry>
        </mxCell>
        <mxCell id="P_rpxnQvKxFGcnmbpjbn-57" value="Thống kê doanh thu" style="rounded=1;whiteSpace=wrap;html=1;labelBackgroundColor=none;fillColor=#ffe6cc;strokeColor=#d79b00;fontSize=14;align=center;fontFamily=Verdana;fontStyle=1" parent="1" vertex="1">
          <mxGeometry x="20" y="720" width="120" height="60" as="geometry" />
        </mxCell>
        <mxCell id="P_rpxnQvKxFGcnmbpjbn-60" value="Quản lí người dùng" style="rounded=1;whiteSpace=wrap;html=1;labelBackgroundColor=none;fillColor=#ffe6cc;strokeColor=#d79b00;fontSize=14;align=center;fontFamily=Verdana;fontStyle=1" parent="1" vertex="1">
          <mxGeometry x="220" y="720" width="120" height="60" as="geometry" />
        </mxCell>
        <mxCell id="P_rpxnQvKxFGcnmbpjbn-61" value="" style="endArrow=classic;html=1;rounded=0;labelBackgroundColor=none;fontColor=default;fontSize=14;align=center;fontFamily=Verdana;fontStyle=1" parent="1" edge="1">
          <mxGeometry width="50" height="50" relative="1" as="geometry">
            <mxPoint x="279.72" y="780" as="sourcePoint" />
            <mxPoint x="280" y="900" as="targetPoint" />
          </mxGeometry>
        </mxCell>
        <mxCell id="P_rpxnQvKxFGcnmbpjbn-63" value="" style="endArrow=classic;html=1;rounded=0;labelBackgroundColor=none;fontColor=default;entryX=0.5;entryY=0;entryDx=0;entryDy=0;fontSize=14;align=center;fontFamily=Verdana;fontStyle=1" parent="1" target="P_rpxnQvKxFGcnmbpjbn-64" edge="1">
          <mxGeometry width="50" height="50" relative="1" as="geometry">
            <mxPoint x="280" y="800" as="sourcePoint" />
            <mxPoint x="160" y="840" as="targetPoint" />
            <Array as="points">
              <mxPoint x="210" y="800" />
            </Array>
          </mxGeometry>
        </mxCell>
        <mxCell id="P_rpxnQvKxFGcnmbpjbn-64" value="Thêm" style="rounded=1;whiteSpace=wrap;html=1;labelBackgroundColor=none;fillColor=#ffe6cc;strokeColor=#d79b00;fontSize=14;align=center;fontFamily=Verdana;fontStyle=1" parent="1" vertex="1">
          <mxGeometry x="160" y="840" width="100" height="40" as="geometry" />
        </mxCell>
        <mxCell id="P_rpxnQvKxFGcnmbpjbn-66" value="Sửa" style="rounded=1;whiteSpace=wrap;html=1;labelBackgroundColor=none;fillColor=#ffe6cc;strokeColor=#d79b00;fontSize=14;align=center;fontFamily=Verdana;fontStyle=1" parent="1" vertex="1">
          <mxGeometry x="230" y="900" width="100" height="40" as="geometry" />
        </mxCell>
        <mxCell id="P_rpxnQvKxFGcnmbpjbn-67" value="" style="endArrow=classic;html=1;rounded=0;labelBackgroundColor=none;fontColor=default;entryX=0.5;entryY=0;entryDx=0;entryDy=0;fontSize=14;align=center;fontFamily=Verdana;fontStyle=1" parent="1" target="P_rpxnQvKxFGcnmbpjbn-69" edge="1">
          <mxGeometry width="50" height="50" relative="1" as="geometry">
            <mxPoint x="280" y="800" as="sourcePoint" />
            <mxPoint x="400.98768446180554" y="880" as="targetPoint" />
            <Array as="points">
              <mxPoint x="350" y="800" />
            </Array>
          </mxGeometry>
        </mxCell>
        <mxCell id="P_rpxnQvKxFGcnmbpjbn-69" value="Xóa" style="rounded=1;whiteSpace=wrap;html=1;labelBackgroundColor=none;fillColor=#ffe6cc;strokeColor=#d79b00;fontSize=14;align=center;fontFamily=Verdana;fontStyle=1" parent="1" vertex="1">
          <mxGeometry x="300" y="840" width="100" height="40" as="geometry" />
        </mxCell>
        <mxCell id="P_rpxnQvKxFGcnmbpjbn-96" value="" style="endArrow=classic;html=1;rounded=0;labelBackgroundColor=none;fontColor=default;entryX=0.5;entryY=0;entryDx=0;entryDy=0;fontSize=14;align=center;fontFamily=Verdana;fontStyle=1" parent="1" target="P_rpxnQvKxFGcnmbpjbn-97" edge="1">
          <mxGeometry width="50" height="50" relative="1" as="geometry">
            <mxPoint x="540" y="800" as="sourcePoint" />
            <mxPoint x="420" y="840" as="targetPoint" />
            <Array as="points">
              <mxPoint x="470" y="800" />
            </Array>
          </mxGeometry>
        </mxCell>
        <mxCell id="P_rpxnQvKxFGcnmbpjbn-97" value="Thêm" style="rounded=1;whiteSpace=wrap;html=1;labelBackgroundColor=none;fillColor=#ffe6cc;strokeColor=#d79b00;fontSize=14;align=center;fontFamily=Verdana;fontStyle=1" parent="1" vertex="1">
          <mxGeometry x="420" y="840" width="100" height="40" as="geometry" />
        </mxCell>
        <mxCell id="P_rpxnQvKxFGcnmbpjbn-98" value="Sửa" style="rounded=1;whiteSpace=wrap;html=1;labelBackgroundColor=none;fillColor=#ffe6cc;strokeColor=#d79b00;fontSize=14;align=center;fontFamily=Verdana;fontStyle=1" parent="1" vertex="1">
          <mxGeometry x="490" y="900" width="100" height="40" as="geometry" />
        </mxCell>
        <mxCell id="P_rpxnQvKxFGcnmbpjbn-99" value="" style="endArrow=classic;html=1;rounded=0;labelBackgroundColor=none;fontColor=default;entryX=0.5;entryY=0;entryDx=0;entryDy=0;fontSize=14;align=center;fontFamily=Verdana;fontStyle=1" parent="1" target="P_rpxnQvKxFGcnmbpjbn-100" edge="1">
          <mxGeometry width="50" height="50" relative="1" as="geometry">
            <mxPoint x="540" y="800" as="sourcePoint" />
            <mxPoint x="660.9876844618055" y="880" as="targetPoint" />
            <Array as="points">
              <mxPoint x="610" y="800" />
            </Array>
          </mxGeometry>
        </mxCell>
        <mxCell id="P_rpxnQvKxFGcnmbpjbn-100" value="Xóa" style="rounded=1;whiteSpace=wrap;html=1;labelBackgroundColor=none;fillColor=#ffe6cc;strokeColor=#d79b00;fontSize=14;align=center;fontFamily=Verdana;fontStyle=1" parent="1" vertex="1">
          <mxGeometry x="560" y="840" width="100" height="40" as="geometry" />
        </mxCell>
        <mxCell id="P_rpxnQvKxFGcnmbpjbn-101" value="" style="edgeStyle=orthogonalEdgeStyle;rounded=0;orthogonalLoop=1;jettySize=auto;html=1;entryX=0.5;entryY=0;entryDx=0;entryDy=0;exitX=0.5;exitY=1;exitDx=0;exitDy=0;fontSize=14;align=center;fontFamily=Verdana;fontStyle=1" parent="1" target="P_rpxnQvKxFGcnmbpjbn-102" edge="1">
          <mxGeometry relative="1" as="geometry">
            <mxPoint x="540" y="660" as="sourcePoint" />
          </mxGeometry>
        </mxCell>
        <mxCell id="P_rpxnQvKxFGcnmbpjbn-102" value="Quản lí sản phẩm" style="rounded=1;whiteSpace=wrap;html=1;labelBackgroundColor=none;fillColor=#ffe6cc;strokeColor=#d79b00;fontSize=14;align=center;fontFamily=Verdana;fontStyle=1" parent="1" vertex="1">
          <mxGeometry x="480" y="720" width="120" height="60" as="geometry" />
        </mxCell>
        <mxCell id="P_rpxnQvKxFGcnmbpjbn-103" value="Sản phẩm" style="rounded=1;whiteSpace=wrap;html=1;labelBackgroundColor=none;fillColor=#ffe6cc;strokeColor=#d79b00;fontSize=14;align=center;fontFamily=Verdana;fontStyle=1" parent="1" vertex="1">
          <mxGeometry x="480" y="600" width="120" height="60" as="geometry" />
        </mxCell>
        <mxCell id="P_rpxnQvKxFGcnmbpjbn-104" value="" style="endArrow=classic;html=1;rounded=0;labelBackgroundColor=none;fontColor=default;exitX=0.5;exitY=1;exitDx=0;exitDy=0;entryX=0.5;entryY=0;entryDx=0;entryDy=0;fontSize=14;align=center;fontFamily=Verdana;fontStyle=1" parent="1" target="P_rpxnQvKxFGcnmbpjbn-98" edge="1">
          <mxGeometry width="50" height="50" relative="1" as="geometry">
            <mxPoint x="540.17" y="780" as="sourcePoint" />
            <mxPoint x="530" y="880" as="targetPoint" />
          </mxGeometry>
        </mxCell>
        <mxCell id="P_rpxnQvKxFGcnmbpjbn-105" value="" style="edgeStyle=orthogonalEdgeStyle;rounded=0;orthogonalLoop=1;jettySize=auto;html=1;exitX=0.5;exitY=1;exitDx=0;exitDy=0;entryX=0.5;entryY=0;entryDx=0;entryDy=0;fontSize=14;align=center;fontFamily=Verdana;fontStyle=1" parent="1" source="P_rpxnQvKxFGcnmbpjbn-33" target="P_rpxnQvKxFGcnmbpjbn-106" edge="1">
          <mxGeometry relative="1" as="geometry">
            <mxPoint x="870" y="660" as="sourcePoint" />
            <mxPoint x="800" y="710" as="targetPoint" />
            <Array as="points" />
          </mxGeometry>
        </mxCell>
        <mxCell id="P_rpxnQvKxFGcnmbpjbn-106" value="Quản lí danh mục" style="rounded=1;whiteSpace=wrap;html=1;labelBackgroundColor=none;fillColor=#ffe6cc;strokeColor=#d79b00;fontSize=14;align=center;fontFamily=Verdana;fontStyle=1" parent="1" vertex="1">
          <mxGeometry x="740" y="720" width="120" height="60" as="geometry" />
        </mxCell>
        <mxCell id="P_rpxnQvKxFGcnmbpjbn-123" value="" style="endArrow=classic;html=1;rounded=0;labelBackgroundColor=none;fontColor=default;entryX=0.5;entryY=0;entryDx=0;entryDy=0;fontSize=14;align=center;fontFamily=Verdana;fontStyle=1" parent="1" target="P_rpxnQvKxFGcnmbpjbn-124" edge="1">
          <mxGeometry width="50" height="50" relative="1" as="geometry">
            <mxPoint x="800" y="800" as="sourcePoint" />
            <mxPoint x="680" y="840" as="targetPoint" />
            <Array as="points">
              <mxPoint x="730" y="800" />
            </Array>
          </mxGeometry>
        </mxCell>
        <mxCell id="P_rpxnQvKxFGcnmbpjbn-124" value="Thêm" style="rounded=1;whiteSpace=wrap;html=1;labelBackgroundColor=none;fillColor=#ffe6cc;strokeColor=#d79b00;fontSize=14;align=center;fontFamily=Verdana;fontStyle=1" parent="1" vertex="1">
          <mxGeometry x="680" y="840" width="100" height="40" as="geometry" />
        </mxCell>
        <mxCell id="P_rpxnQvKxFGcnmbpjbn-126" value="" style="endArrow=classic;html=1;rounded=0;labelBackgroundColor=none;fontColor=default;entryX=0.5;entryY=0;entryDx=0;entryDy=0;fontSize=14;align=center;fontFamily=Verdana;fontStyle=1" parent="1" target="P_rpxnQvKxFGcnmbpjbn-127" edge="1">
          <mxGeometry width="50" height="50" relative="1" as="geometry">
            <mxPoint x="800" y="800" as="sourcePoint" />
            <mxPoint x="920.9876844618055" y="880" as="targetPoint" />
            <Array as="points">
              <mxPoint x="870" y="800" />
            </Array>
          </mxGeometry>
        </mxCell>
        <mxCell id="P_rpxnQvKxFGcnmbpjbn-127" value="Xóa" style="rounded=1;whiteSpace=wrap;html=1;labelBackgroundColor=none;fillColor=#ffe6cc;strokeColor=#d79b00;fontSize=14;align=center;fontFamily=Verdana;fontStyle=1" parent="1" vertex="1">
          <mxGeometry x="820" y="840" width="100" height="40" as="geometry" />
        </mxCell>
        <mxCell id="P_rpxnQvKxFGcnmbpjbn-128" value="" style="endArrow=classic;html=1;rounded=0;labelBackgroundColor=none;fontColor=default;fontSize=14;align=center;entryX=0.5;entryY=0;entryDx=0;entryDy=0;fontFamily=Verdana;fontStyle=1" parent="1" target="P_rpxnQvKxFGcnmbpjbn-151" edge="1">
          <mxGeometry width="50" height="50" relative="1" as="geometry">
            <mxPoint x="800" y="780" as="sourcePoint" />
            <mxPoint x="800" y="870" as="targetPoint" />
          </mxGeometry>
        </mxCell>
        <mxCell id="P_rpxnQvKxFGcnmbpjbn-130" value="" style="edgeStyle=orthogonalEdgeStyle;rounded=0;orthogonalLoop=1;jettySize=auto;html=1;entryX=0.5;entryY=0;entryDx=0;entryDy=0;fontSize=14;align=center;exitX=0.5;exitY=1;exitDx=0;exitDy=0;fontFamily=Verdana;fontStyle=1" parent="1" source="P_rpxnQvKxFGcnmbpjbn-35" target="P_rpxnQvKxFGcnmbpjbn-131" edge="1">
          <mxGeometry relative="1" as="geometry">
            <mxPoint x="1080" y="680" as="sourcePoint" />
            <mxPoint x="1060" y="710" as="targetPoint" />
            <Array as="points" />
          </mxGeometry>
        </mxCell>
        <mxCell id="P_rpxnQvKxFGcnmbpjbn-131" value="Quản lý bình luận" style="rounded=1;whiteSpace=wrap;html=1;labelBackgroundColor=none;fillColor=#ffe6cc;strokeColor=#d79b00;fontSize=14;align=center;fontFamily=Verdana;fontStyle=1" parent="1" vertex="1">
          <mxGeometry x="1000" y="720" width="120" height="60" as="geometry" />
        </mxCell>
        <mxCell id="P_rpxnQvKxFGcnmbpjbn-132" value="" style="endArrow=classic;html=1;rounded=0;labelBackgroundColor=none;fontColor=default;entryX=0.5;entryY=0;entryDx=0;entryDy=0;fontSize=14;align=center;fontFamily=Verdana;fontStyle=1" parent="1" target="P_rpxnQvKxFGcnmbpjbn-133" edge="1">
          <mxGeometry width="50" height="50" relative="1" as="geometry">
            <mxPoint x="1060" y="800" as="sourcePoint" />
            <mxPoint x="940" y="840" as="targetPoint" />
            <Array as="points">
              <mxPoint x="990" y="800" />
            </Array>
          </mxGeometry>
        </mxCell>
        <mxCell id="P_rpxnQvKxFGcnmbpjbn-133" value="Chi tiết" style="rounded=1;whiteSpace=wrap;html=1;labelBackgroundColor=none;fillColor=#ffe6cc;strokeColor=#d79b00;fontSize=14;align=center;fontFamily=Verdana;fontStyle=1" parent="1" vertex="1">
          <mxGeometry x="940" y="840" width="100" height="40" as="geometry" />
        </mxCell>
        <mxCell id="P_rpxnQvKxFGcnmbpjbn-134" value="" style="endArrow=classic;html=1;rounded=0;labelBackgroundColor=none;fontColor=default;entryX=0.5;entryY=0;entryDx=0;entryDy=0;fontSize=14;align=center;fontFamily=Verdana;fontStyle=1" parent="1" target="P_rpxnQvKxFGcnmbpjbn-135" edge="1">
          <mxGeometry width="50" height="50" relative="1" as="geometry">
            <mxPoint x="1060" y="800" as="sourcePoint" />
            <mxPoint x="1180.9876844618057" y="880" as="targetPoint" />
            <Array as="points">
              <mxPoint x="1130" y="800" />
            </Array>
          </mxGeometry>
        </mxCell>
        <mxCell id="P_rpxnQvKxFGcnmbpjbn-135" value="Xóa" style="rounded=1;whiteSpace=wrap;html=1;labelBackgroundColor=none;fillColor=#ffe6cc;strokeColor=#d79b00;fontSize=14;align=center;fontFamily=Verdana;fontStyle=1" parent="1" vertex="1">
          <mxGeometry x="1080" y="840" width="100" height="40" as="geometry" />
        </mxCell>
        <mxCell id="P_rpxnQvKxFGcnmbpjbn-136" value="" style="endArrow=classic;html=1;rounded=0;labelBackgroundColor=none;fontColor=default;fontSize=14;align=center;fontFamily=Verdana;fontStyle=1" parent="1" edge="1">
          <mxGeometry width="50" height="50" relative="1" as="geometry">
            <mxPoint x="1060" y="780" as="sourcePoint" />
            <mxPoint x="1060" y="800" as="targetPoint" />
          </mxGeometry>
        </mxCell>
        <mxCell id="P_rpxnQvKxFGcnmbpjbn-137" value="" style="endArrow=classic;html=1;rounded=0;exitX=0.5;exitY=1;exitDx=0;exitDy=0;entryX=1;entryY=0.5;entryDx=0;entryDy=0;fontSize=14;align=center;fontFamily=Verdana;fontStyle=1" parent="1" target="P_rpxnQvKxFGcnmbpjbn-138" edge="1" source="NhmMuveX9BDLbL9c3R6i-5">
          <mxGeometry width="50" height="50" relative="1" as="geometry">
            <mxPoint x="1810" y="700" as="sourcePoint" />
            <mxPoint x="1780" y="760" as="targetPoint" />
            <Array as="points">
              <mxPoint x="1810" y="760" />
            </Array>
          </mxGeometry>
        </mxCell>
        <mxCell id="P_rpxnQvKxFGcnmbpjbn-138" value="&lt;div&gt;&lt;span style=&quot;background-color: initial;&quot;&gt;Đăng nhập&amp;nbsp;&lt;/span&gt;&lt;/div&gt;" style="rounded=1;whiteSpace=wrap;html=1;labelBackgroundColor=none;fillColor=#ffe6cc;strokeColor=#d79b00;align=center;fontSize=14;fontFamily=Verdana;fontStyle=1" parent="1" vertex="1">
          <mxGeometry x="1700" y="740" width="80" height="40" as="geometry" />
        </mxCell>
        <mxCell id="P_rpxnQvKxFGcnmbpjbn-139" value="" style="endArrow=classic;html=1;rounded=0;fontSize=14;align=center;exitX=0.5;exitY=1;exitDx=0;exitDy=0;entryX=0.5;entryY=0;entryDx=0;entryDy=0;fontFamily=Verdana;fontStyle=1" parent="1" source="P_rpxnQvKxFGcnmbpjbn-138" target="P_rpxnQvKxFGcnmbpjbn-140" edge="1">
          <mxGeometry width="50" height="50" relative="1" as="geometry">
            <mxPoint x="1810" y="760" as="sourcePoint" />
            <mxPoint x="1670" y="800" as="targetPoint" />
            <Array as="points">
              <mxPoint x="1740" y="800" />
              <mxPoint x="1685" y="800" />
            </Array>
          </mxGeometry>
        </mxCell>
        <mxCell id="P_rpxnQvKxFGcnmbpjbn-140" value="&lt;div&gt;&lt;span style=&quot;background-color: initial;&quot;&gt;Thông tin tài khoản&amp;nbsp;&lt;/span&gt;&lt;/div&gt;" style="rounded=1;whiteSpace=wrap;html=1;labelBackgroundColor=none;fillColor=#ffe6cc;strokeColor=#d79b00;align=center;fontSize=14;fontFamily=Verdana;fontStyle=1" parent="1" vertex="1">
          <mxGeometry x="1640" y="820" width="90" height="40" as="geometry" />
        </mxCell>
        <mxCell id="P_rpxnQvKxFGcnmbpjbn-141" value="&lt;span style=&quot;&quot;&gt;Đơn Hàng&lt;/span&gt;" style="rounded=1;whiteSpace=wrap;html=1;labelBackgroundColor=none;fillColor=#ffe6cc;strokeColor=#d79b00;fontSize=14;align=center;fontFamily=Verdana;fontStyle=1" parent="1" vertex="1">
          <mxGeometry x="1260" y="600" width="120" height="60" as="geometry" />
        </mxCell>
        <mxCell id="P_rpxnQvKxFGcnmbpjbn-142" value="" style="edgeStyle=orthogonalEdgeStyle;rounded=0;orthogonalLoop=1;jettySize=auto;html=1;exitX=0.5;exitY=1;exitDx=0;exitDy=0;entryX=0.5;entryY=0;entryDx=0;entryDy=0;fontSize=14;align=center;fontFamily=Verdana;fontStyle=1" parent="1" source="P_rpxnQvKxFGcnmbpjbn-141" target="P_rpxnQvKxFGcnmbpjbn-143" edge="1">
          <mxGeometry relative="1" as="geometry">
            <mxPoint x="1320" y="650" as="sourcePoint" />
            <mxPoint x="1320" y="710" as="targetPoint" />
            <Array as="points" />
          </mxGeometry>
        </mxCell>
        <mxCell id="P_rpxnQvKxFGcnmbpjbn-143" value="Quản lí đơn hàng" style="rounded=1;whiteSpace=wrap;html=1;labelBackgroundColor=none;fillColor=#ffe6cc;strokeColor=#d79b00;fontSize=14;align=center;fontFamily=Verdana;fontStyle=1" parent="1" vertex="1">
          <mxGeometry x="1260" y="720" width="120" height="60" as="geometry" />
        </mxCell>
        <mxCell id="P_rpxnQvKxFGcnmbpjbn-144" value="" style="endArrow=classic;html=1;rounded=0;labelBackgroundColor=none;fontColor=default;entryX=0.5;entryY=0;entryDx=0;entryDy=0;fontSize=14;align=center;fontFamily=Verdana;fontStyle=1" parent="1" target="P_rpxnQvKxFGcnmbpjbn-145" edge="1">
          <mxGeometry width="50" height="50" relative="1" as="geometry">
            <mxPoint x="1320" y="800" as="sourcePoint" />
            <mxPoint x="1200" y="840" as="targetPoint" />
            <Array as="points">
              <mxPoint x="1250" y="800" />
            </Array>
          </mxGeometry>
        </mxCell>
        <mxCell id="P_rpxnQvKxFGcnmbpjbn-145" value="Chi tiết" style="rounded=1;whiteSpace=wrap;html=1;labelBackgroundColor=none;fillColor=#ffe6cc;strokeColor=#d79b00;fontSize=14;align=center;fontFamily=Verdana;fontStyle=1" parent="1" vertex="1">
          <mxGeometry x="1200" y="840" width="100" height="40" as="geometry" />
        </mxCell>
        <mxCell id="P_rpxnQvKxFGcnmbpjbn-146" value="" style="endArrow=classic;html=1;rounded=0;labelBackgroundColor=none;fontColor=default;entryX=0.5;entryY=0;entryDx=0;entryDy=0;fontSize=14;align=center;fontFamily=Verdana;fontStyle=1" parent="1" target="P_rpxnQvKxFGcnmbpjbn-147" edge="1">
          <mxGeometry width="50" height="50" relative="1" as="geometry">
            <mxPoint x="1320" y="800" as="sourcePoint" />
            <mxPoint x="1440.9876844618057" y="880" as="targetPoint" />
            <Array as="points">
              <mxPoint x="1390" y="800" />
            </Array>
          </mxGeometry>
        </mxCell>
        <mxCell id="P_rpxnQvKxFGcnmbpjbn-147" value="Cập nhật trạng thái" style="rounded=1;whiteSpace=wrap;html=1;labelBackgroundColor=none;fillColor=#ffe6cc;strokeColor=#d79b00;fontSize=14;align=center;fontFamily=Verdana;fontStyle=1" parent="1" vertex="1">
          <mxGeometry x="1340" y="840" width="100" height="40" as="geometry" />
        </mxCell>
        <mxCell id="P_rpxnQvKxFGcnmbpjbn-148" value="" style="endArrow=classic;html=1;rounded=0;labelBackgroundColor=none;fontColor=default;fontSize=14;align=center;fontFamily=Verdana;fontStyle=1" parent="1" edge="1">
          <mxGeometry width="50" height="50" relative="1" as="geometry">
            <mxPoint x="1320" y="780" as="sourcePoint" />
            <mxPoint x="1320" y="800" as="targetPoint" />
          </mxGeometry>
        </mxCell>
        <mxCell id="P_rpxnQvKxFGcnmbpjbn-149" value="" style="endArrow=classic;html=1;rounded=0;entryX=0.5;entryY=0;entryDx=0;entryDy=0;labelBackgroundColor=none;fontColor=default;fontSize=14;align=center;fontFamily=Verdana;fontStyle=1" parent="1" edge="1">
          <mxGeometry width="50" height="50" relative="1" as="geometry">
            <mxPoint x="1059.5" y="520" as="sourcePoint" />
            <mxPoint x="1059.5" y="600" as="targetPoint" />
          </mxGeometry>
        </mxCell>
        <mxCell id="P_rpxnQvKxFGcnmbpjbn-151" value="Sửa" style="rounded=1;whiteSpace=wrap;html=1;labelBackgroundColor=none;fillColor=#ffe6cc;strokeColor=#d79b00;fontSize=14;align=center;fontFamily=Verdana;fontStyle=1" parent="1" vertex="1">
          <mxGeometry x="750" y="900" width="100" height="40" as="geometry" />
        </mxCell>
        <mxCell id="P_rpxnQvKxFGcnmbpjbn-153" value="" style="endArrow=classic;html=1;rounded=0;entryX=0.5;entryY=0;entryDx=0;entryDy=0;fontFamily=Verdana;fontStyle=1" parent="1" target="P_rpxnQvKxFGcnmbpjbn-154" edge="1">
          <mxGeometry width="50" height="50" relative="1" as="geometry">
            <mxPoint x="1740" y="800" as="sourcePoint" />
            <mxPoint x="1790" y="820" as="targetPoint" />
            <Array as="points">
              <mxPoint x="1790" y="800" />
            </Array>
          </mxGeometry>
        </mxCell>
        <mxCell id="P_rpxnQvKxFGcnmbpjbn-154" value="Theo dõi hóa đơn" style="rounded=1;whiteSpace=wrap;html=1;labelBackgroundColor=none;fillColor=#ffe6cc;strokeColor=#d79b00;align=center;fontSize=14;fontFamily=Verdana;fontStyle=1" parent="1" vertex="1">
          <mxGeometry x="1750" y="820" width="80" height="40" as="geometry" />
        </mxCell>
        <mxCell id="P_rpxnQvKxFGcnmbpjbn-156" value="" style="endArrow=classic;html=1;rounded=0;fontFamily=Verdana;fontStyle=1" parent="1" edge="1">
          <mxGeometry width="50" height="50" relative="1" as="geometry">
            <mxPoint x="1810" y="760" as="sourcePoint" />
            <mxPoint x="1840" y="760" as="targetPoint" />
          </mxGeometry>
        </mxCell>
        <mxCell id="P_rpxnQvKxFGcnmbpjbn-157" value="&lt;div&gt;&lt;span style=&quot;background-color: initial;&quot;&gt;Đăng kí&lt;/span&gt;&lt;/div&gt;" style="rounded=1;whiteSpace=wrap;html=1;labelBackgroundColor=none;fillColor=#ffe6cc;strokeColor=#d79b00;align=center;fontSize=14;fontFamily=Verdana;fontStyle=1" parent="1" vertex="1">
          <mxGeometry x="1840" y="740" width="80" height="40" as="geometry" />
        </mxCell>
      </root>
    </mxGraphModel>
  </diagram>
</mxfile>
